<svg width="28" height="28" viewBox="0 0 28 28" fill="none" xmlns="http://www.w3.org/2000/svg">
<rect x="21.5312" y="1.4375" width="5.5625" height="12.125" rx="1" fill="white"/>
<path d="M10.4377 0.937742C14.6563 0.937742 17.9273 1.83358 20.5627 2.28149V13.0318H19.9688C18.6588 13.0318 17.38 15.4911 16.9711 16.2773L16.9688 16.2818C16.5625 17.0631 15.8125 18.9693 15.5625 19.3756C15.3125 19.7818 14.6563 20.0943 14.125 20.5318C13.5938 20.9693 13.0313 21.6568 12.4688 23.1256C11.9063 24.5943 12.1562 26.4381 12 26.6881C11.8438 26.9381 11.6563 27.1568 11.3438 27.1568C11.0313 27.1568 10.4377 27.1256 9.59379 26.6881C8.74986 26.2506 8.15629 24.5631 8.15629 23.5006C8.15629 22.4381 8.25004 20.5943 9.40629 19.3756C10.3313 18.4006 10.2709 17.2193 10.125 16.7506C8.65629 16.6985 5.61861 16.7506 4.21875 16.7506C2.46892 16.7506 1.68754 15.5318 1.46896 15.2818C1.25039 15.0318 0.875088 14.5631 0.875088 13.9381C0.875088 13.3131 1.78129 12.7822 1.84379 12.3135C1.90629 11.8447 0.906338 10.7193 0.875088 10.2818C0.843838 9.8443 2.09369 8.93846 2.12494 8.53221C2.15619 8.12596 1.34396 7.06305 1.46896 6.4693C1.59396 5.87555 2.9375 4.90721 3.09375 4.59471C3.25 4.28221 2.50021 3.68727 3.96896 2.12573C5.43819 0.563675 8.21896 0.937742 10.4377 0.937742Z" fill="white"/>
</svg>

