<svg width="59" height="55" viewBox="0 0 59 55" fill="none" xmlns="http://www.w3.org/2000/svg">
<path d="M30.5507 37.8757C30.5507 37.0086 30.5507 36.0361 30.5507 34.9885M36.8279 23.0265C36.8279 18.1153 36.8279 12.1876 36.8279 10.9268C36.8279 9.07077 35.5841 7.62695 33.6502 7.62695C31.7163 7.62695 30.5507 8.66962 30.5507 10.9268C30.5507 13.184 30.5507 26.6231 30.5507 34.9885M36.8279 23.0265C36.8279 26.1137 36.8279 28.1895 36.8279 30.3595C36.8279 28.3735 36.8279 24.933 36.8279 23.0265ZM36.8279 23.0265C36.8279 21.1015 38.3848 19.8985 40.1329 19.8985C41.881 19.8985 43.423 20.9182 43.423 23.0265C43.423 23.3621 43.423 22.9233 43.423 24.9285M43.423 24.9285C43.423 26.9336 43.423 29.7045 43.423 31.3678C43.423 31.3678 43.423 26.9336 43.423 24.9285ZM43.423 24.9285C43.423 22.9233 44.7462 21.8578 46.7326 21.8578C48.7191 21.8578 49.7002 23.6223 49.7201 25.0889C49.7263 25.5511 49.723 27.537 49.7201 27.9992M49.7201 32.3303C49.7241 31.1636 49.7198 29.1658 49.7201 27.9992M49.7201 27.9992C49.7201 26.4867 51.2272 25.3868 53.0459 25.3868C54.8646 25.3868 56.1959 26.8992 56.1959 28.2283C56.1959 29.5574 56.1959 36.9134 56.1959 39.0216C56.1959 43.834 53.014 48.3711 49.1731 50.5711C45.3323 52.771 44.04 53.0001 40.6967 53.0001C37.3534 53.0001 33.182 50.6477 31.4364 49.1503C29.6907 47.6529 21.2938 37.8759 20.3403 36.7759C19.0491 35.2864 19.2228 33.4302 19.4285 32.9261C19.6343 32.4219 20.1389 31.4708 21.0212 30.8521C21.9034 30.2333 22.6139 30.1762 23.5981 30.3595C24.5824 30.5428 28.551 33.5677 30.5507 34.9885" stroke="#B1B1B1" stroke-width="4" stroke-linecap="round" stroke-linejoin="round"/>
<path d="M17.4326 14.0389H24.3532M24.3532 14.0389L21.2595 10.9453M24.3532 14.0389L21.2595 17.1326" stroke="#B1B1B1" stroke-width="4" stroke-linecap="round" stroke-linejoin="round"/>
<path d="M13.056 9.61719L13.056 2.69663M13.056 2.69663L9.9624 5.79026M13.056 2.69663L16.1497 5.79026" stroke="#B1B1B1" stroke-width="4" stroke-linecap="round" stroke-linejoin="round"/>
<path d="M9.04541 14.0392L2.12486 14.0392M2.12486 14.0392L5.21848 17.1328M2.12486 14.0392L5.21848 10.9456" stroke="#B1B1B1" stroke-width="4" stroke-linecap="round" stroke-linejoin="round"/>
<path d="M13.0558 18.1406L13.0558 25.0612M13.0558 25.0612L16.1494 21.9676M13.0558 25.0612L9.96216 21.9676" stroke="#B1B1B1" stroke-width="4" stroke-linecap="round" stroke-linejoin="round"/>
</svg>
