<svg width="69" height="56" viewBox="0 0 69 56" fill="none" xmlns="http://www.w3.org/2000/svg">
<path opacity="0.7" d="M21.2843 51.426C21.2843 52.714 20.9577 53.6893 20.3043 54.352C19.6603 55.024 18.6757 55.36 17.3503 55.36C16.7437 55.36 16.1463 55.29 15.5583 55.15C14.9703 55.0193 14.429 54.758 13.9343 54.366L15.0963 52.63C15.423 52.9007 15.7637 53.1153 16.1183 53.274C16.4823 53.4327 16.879 53.512 17.3083 53.512C17.9523 53.512 18.4237 53.3533 18.7223 53.036C19.0303 52.728 19.1843 52.3313 19.1843 51.846V51.188H19.1563C18.9137 51.5147 18.6103 51.748 18.2463 51.888C17.8917 52.0187 17.5557 52.084 17.2383 52.084C16.7343 52.084 16.277 52 15.8663 51.832C15.4557 51.6547 15.101 51.412 14.8023 51.104C14.513 50.7867 14.289 50.4133 14.1303 49.984C13.9717 49.5547 13.8923 49.0833 13.8923 48.57C13.8923 48.122 13.9623 47.6833 14.1023 47.254C14.2517 46.8247 14.457 46.4467 14.7183 46.12C14.989 45.7933 15.3157 45.532 15.6983 45.336C16.081 45.1307 16.515 45.028 17.0003 45.028C17.299 45.028 17.5697 45.0607 17.8123 45.126C18.0643 45.1913 18.2883 45.2753 18.4843 45.378C18.6803 45.4807 18.8483 45.5973 18.9883 45.728C19.1283 45.8493 19.2403 45.9707 19.3243 46.092H19.3523V45.196H21.2843V51.426ZM15.9923 48.556C15.9923 48.78 16.0343 48.9947 16.1183 49.2C16.2023 49.396 16.319 49.5733 16.4683 49.732C16.627 49.8813 16.8043 50.0027 17.0003 50.096C17.2057 50.1893 17.4297 50.236 17.6723 50.236C17.9057 50.236 18.125 50.1893 18.3303 50.096C18.5357 50.0027 18.713 49.8813 18.8623 49.732C19.021 49.5733 19.1423 49.396 19.2263 49.2C19.3103 48.9947 19.3523 48.78 19.3523 48.556C19.3523 48.332 19.3103 48.122 19.2263 47.926C19.1423 47.7207 19.021 47.5433 18.8623 47.394C18.713 47.2353 18.5357 47.1093 18.3303 47.016C18.125 46.9227 17.9057 46.876 17.6723 46.876C17.4297 46.876 17.2057 46.9227 17.0003 47.016C16.8043 47.1093 16.627 47.2353 16.4683 47.394C16.319 47.5433 16.2023 47.7207 16.1183 47.926C16.0343 48.122 15.9923 48.332 15.9923 48.556ZM22.9627 45.196H25.0627V46.288H25.0907C25.3147 45.868 25.5807 45.5553 25.8887 45.35C26.1967 45.1353 26.584 45.028 27.0507 45.028C27.172 45.028 27.2934 45.0327 27.4147 45.042C27.536 45.0513 27.648 45.07 27.7507 45.098V47.016C27.6014 46.9693 27.452 46.9367 27.3027 46.918C27.1627 46.89 27.0134 46.876 26.8547 46.876C26.4534 46.876 26.136 46.932 25.9027 47.044C25.6694 47.156 25.4874 47.3147 25.3567 47.52C25.2354 47.716 25.156 47.954 25.1187 48.234C25.0814 48.514 25.0627 48.822 25.0627 49.158V52H22.9627V45.196ZM32.9339 51.146H32.9059C32.6725 51.51 32.3599 51.7713 31.9679 51.93C31.5852 52.0887 31.1792 52.168 30.7499 52.168C30.4325 52.168 30.1245 52.1213 29.8259 52.028C29.5365 51.944 29.2799 51.8133 29.0559 51.636C28.8319 51.4587 28.6545 51.2393 28.5239 50.978C28.3932 50.7167 28.3279 50.4133 28.3279 50.068C28.3279 49.676 28.3979 49.3447 28.5379 49.074C28.6872 48.8033 28.8832 48.5793 29.1259 48.402C29.3779 48.2247 29.6625 48.0893 29.9799 47.996C30.2972 47.8933 30.6239 47.8187 30.9599 47.772C31.3052 47.7253 31.6459 47.6973 31.9819 47.688C32.3272 47.6787 32.6445 47.674 32.9339 47.674C32.9339 47.3007 32.7985 47.0067 32.5279 46.792C32.2665 46.568 31.9539 46.456 31.5899 46.456C31.2445 46.456 30.9272 46.5307 30.6379 46.68C30.3579 46.82 30.1059 47.016 29.8819 47.268L28.7619 46.12C29.1539 45.756 29.6112 45.4853 30.1339 45.308C30.6565 45.1213 31.1979 45.028 31.7579 45.028C32.3739 45.028 32.8779 45.1073 33.2699 45.266C33.6712 45.4153 33.9885 45.6393 34.2219 45.938C34.4645 46.2367 34.6325 46.6053 34.7259 47.044C34.8192 47.4733 34.8659 47.9727 34.8659 48.542V52H32.9339V51.146ZM32.4159 49.018C32.2572 49.018 32.0565 49.0273 31.8139 49.046C31.5805 49.0553 31.3519 49.0927 31.1279 49.158C30.9132 49.2233 30.7265 49.3213 30.5679 49.452C30.4185 49.5827 30.3439 49.7647 30.3439 49.998C30.3439 50.25 30.4512 50.4367 30.6659 50.558C30.8805 50.6793 31.1045 50.74 31.3379 50.74C31.5432 50.74 31.7392 50.712 31.9259 50.656C32.1219 50.6 32.2945 50.5207 32.4439 50.418C32.5932 50.3153 32.7099 50.1847 32.7939 50.026C32.8872 49.8673 32.9339 49.6807 32.9339 49.466V49.018H32.4159ZM36.2114 45.196H38.3114V52H36.2114V45.196ZM36.0434 43.054C36.0434 42.718 36.1601 42.4333 36.3934 42.2C36.6361 41.9573 36.9254 41.836 37.2614 41.836C37.5974 41.836 37.8821 41.9573 38.1154 42.2C38.3581 42.4333 38.4794 42.718 38.4794 43.054C38.4794 43.39 38.3581 43.6793 38.1154 43.922C37.8821 44.1553 37.5974 44.272 37.2614 44.272C36.9254 44.272 36.6361 44.1553 36.3934 43.922C36.1601 43.6793 36.0434 43.39 36.0434 43.054ZM39.8201 45.196H41.8361V46.12H41.8641C41.9295 45.9893 42.0228 45.8587 42.1441 45.728C42.2655 45.5973 42.4101 45.4807 42.5781 45.378C42.7461 45.2753 42.9375 45.1913 43.1521 45.126C43.3668 45.0607 43.6001 45.028 43.8521 45.028C44.3841 45.028 44.8135 45.112 45.1401 45.28C45.4668 45.4387 45.7188 45.6627 45.8961 45.952C46.0828 46.2413 46.2088 46.582 46.2741 46.974C46.3395 47.366 46.3721 47.7907 46.3721 48.248V52H44.2721V48.668C44.2721 48.472 44.2628 48.2713 44.2441 48.066C44.2348 47.8513 44.1928 47.6553 44.1181 47.478C44.0528 47.3007 43.9455 47.156 43.7961 47.044C43.6561 46.932 43.4508 46.876 43.1801 46.876C42.9095 46.876 42.6901 46.9273 42.5221 47.03C42.3541 47.1233 42.2235 47.254 42.1301 47.422C42.0461 47.5807 41.9901 47.7627 41.9621 47.968C41.9341 48.1733 41.9201 48.388 41.9201 48.612V52H39.8201V45.196ZM51.7092 47.198C51.4012 46.8153 50.9952 46.624 50.4912 46.624C50.3139 46.624 50.1412 46.666 49.9732 46.75C49.8052 46.834 49.7212 46.9787 49.7212 47.184C49.7212 47.352 49.8052 47.478 49.9732 47.562C50.1505 47.6367 50.3699 47.7067 50.6312 47.772C50.9019 47.828 51.1865 47.8933 51.4852 47.968C51.7932 48.0333 52.0779 48.1407 52.3392 48.29C52.6099 48.4393 52.8292 48.6447 52.9972 48.906C53.1745 49.158 53.2632 49.4987 53.2632 49.928C53.2632 50.3667 53.1652 50.7307 52.9692 51.02C52.7825 51.3 52.5399 51.5287 52.2412 51.706C51.9425 51.874 51.6065 51.9907 51.2332 52.056C50.8599 52.1307 50.4912 52.168 50.1272 52.168C49.6512 52.168 49.1705 52.1027 48.6852 51.972C48.1999 51.832 47.7892 51.5893 47.4532 51.244L48.7272 49.83C48.9232 50.0727 49.1379 50.2593 49.3712 50.39C49.6139 50.5113 49.8939 50.572 50.2112 50.572C50.4539 50.572 50.6732 50.5393 50.8692 50.474C51.0652 50.3993 51.1632 50.2687 51.1632 50.082C51.1632 49.9047 51.0745 49.774 50.8972 49.69C50.7292 49.5967 50.5099 49.522 50.2392 49.466C49.9779 49.4007 49.6932 49.3353 49.3852 49.27C49.0865 49.1953 48.8019 49.088 48.5312 48.948C48.2699 48.808 48.0505 48.612 47.8732 48.36C47.7052 48.0987 47.6212 47.7533 47.6212 47.324C47.6212 46.9227 47.7005 46.5773 47.8592 46.288C48.0272 45.9987 48.2419 45.7607 48.5032 45.574C48.7739 45.3873 49.0819 45.252 49.4272 45.168C49.7725 45.0747 50.1225 45.028 50.4772 45.028C50.9252 45.028 51.3779 45.0933 51.8352 45.224C52.2925 45.3547 52.6799 45.588 52.9972 45.924L51.7092 47.198Z" fill="white"/>
<g opacity="0.7">
<path d="M34.5 2L46.831 2C57.581 2 65.4855 12.3125 66.434 18.875C67.3825 25.4375 68.6473 32 56.3163 32C46.4515 32 37.6618 32 34.5 32" stroke="white" stroke-width="3" stroke-linecap="round" stroke-linejoin="round"/>
<path d="M34.5 2L22.169 2C11.419 2 3.51453 12.3125 2.566 18.875C1.61746 25.4375 0.352748 32 12.6837 32C22.5485 32 31.3382 32 34.5 32" stroke="white" stroke-width="3" stroke-linecap="round" stroke-linejoin="round"/>
<path d="M21.1904 2C19.8741 3.68972 16.5123 8.08303 13.596 12.1383C11.4695 15.0953 15.4186 21.1069 19.3678 16.0377C22.5271 11.9824 27.7723 4.98951 30 2" stroke="white" stroke-width="3" stroke-linecap="round" stroke-linejoin="round"/>
<path d="M36.1904 2C34.8741 3.68972 31.5123 8.08303 28.596 12.1383C26.4695 15.0953 30.4186 21.1069 34.3678 16.0377C37.5271 11.9824 42.7723 4.98951 45 2" stroke="white" stroke-width="3" stroke-linecap="round" stroke-linejoin="round"/>
<path d="M50.6087 3C49.2899 4.66528 46.5189 8.22646 43.5971 12.2231C41.4666 15.1374 45.4232 21.0619 49.3797 16.0661C52.5449 12.0694 54.7681 9.40494 57 6.45867" stroke="white" stroke-width="3" stroke-linecap="round" stroke-linejoin="round"/>
</g>
</svg>
