<svg width="53" height="53" viewBox="0 0 53 53" fill="none" xmlns="http://www.w3.org/2000/svg">
<path d="M23.927 4.50332C17.1246 11.7102 23.2184 21.2841 27.1156 25.1701C30.8356 28.8796 42.5271 35.7685 47.8414 30.9992M23.927 4.50332C30.8357 -2.38562 40.9328 6.62283 45.7157 11.3923C51.302 16.9628 53.1558 26.23 47.8414 30.9992M23.927 4.50332C14.8926 14.0417 15.4241 15.501 15.424 19.8708C15.424 26.1006 8.90498 31.4636 12.7667 36.7438M47.8414 30.9992C43.0587 34.7088 38.8069 39.4777 30.304 38.4179C23.8389 37.6121 22.5838 42.688 17.0182 40.0472M12.7667 36.7438C13.1753 37.3024 13.7001 37.8602 14.3611 38.4179C15.3518 39.1423 16.2284 39.6724 17.0182 40.0472M12.7667 36.7438L7.98382 40.5376C3.20092 35.7683 -1.58198 46.8966 5.85809 46.8966C5.32665 53.7855 17.5496 51.136 12.2353 45.3068L17.0182 40.0472" stroke-width="3" stroke-linecap="round" stroke-linejoin="round"/>
<ellipse cx="36.5649" cy="17.4382" rx="5.52339" ry="3.68226" transform="rotate(42.2057 36.5649 17.4382)" stroke-width="3"/>
</svg>
