<svg width="73" height="70" viewBox="0 0 73 70" fill="none" xmlns="http://www.w3.org/2000/svg">
<path opacity="0.7" d="M0.0924531 59.196H2.36045L4.08245 63.816H4.11045L5.70645 59.196H7.82045L5.13245 66H2.90645L0.0924531 59.196ZM15.0258 64.824C14.6898 65.2533 14.2651 65.5847 13.7518 65.818C13.2384 66.0513 12.7064 66.168 12.1558 66.168C11.6331 66.168 11.1384 66.084 10.6718 65.916C10.2144 65.748 9.81308 65.51 9.46775 65.202C9.13175 64.8847 8.86575 64.5067 8.66975 64.068C8.47375 63.6293 8.37575 63.1393 8.37575 62.598C8.37575 62.0567 8.47375 61.5667 8.66975 61.128C8.86575 60.6893 9.13175 60.316 9.46775 60.008C9.81308 59.6907 10.2144 59.448 10.6718 59.28C11.1384 59.112 11.6331 59.028 12.1558 59.028C12.6411 59.028 13.0798 59.112 13.4718 59.28C13.8731 59.448 14.2091 59.6907 14.4798 60.008C14.7598 60.316 14.9744 60.6893 15.1238 61.128C15.2731 61.5667 15.3478 62.0567 15.3478 62.598V63.256H10.4758C10.5598 63.6573 10.7418 63.9793 11.0218 64.222C11.3018 64.4553 11.6471 64.572 12.0578 64.572C12.4031 64.572 12.6924 64.4973 12.9258 64.348C13.1684 64.1893 13.3784 63.9887 13.5558 63.746L15.0258 64.824ZM13.2478 61.828C13.2571 61.4733 13.1404 61.17 12.8978 60.918C12.6551 60.666 12.3424 60.54 11.9597 60.54C11.7264 60.54 11.5211 60.5773 11.3438 60.652C11.1664 60.7267 11.0124 60.8247 10.8818 60.946C10.7604 61.058 10.6624 61.1933 10.5878 61.352C10.5224 61.5013 10.4851 61.66 10.4758 61.828H13.2478ZM23.7648 65.426C23.7648 66.714 23.4381 67.6893 22.7848 68.352C22.1408 69.024 21.1561 69.36 19.8308 69.36C19.2241 69.36 18.6268 69.29 18.0388 69.15C17.4508 69.0193 16.9095 68.758 16.4148 68.366L17.5768 66.63C17.9035 66.9007 18.2441 67.1153 18.5988 67.274C18.9628 67.4327 19.3595 67.512 19.7888 67.512C20.4328 67.512 20.9041 67.3533 21.2028 67.036C21.5108 66.728 21.6648 66.3313 21.6648 65.846V65.188H21.6368C21.3941 65.5147 21.0908 65.748 20.7268 65.888C20.3721 66.0187 20.0361 66.084 19.7188 66.084C19.2148 66.084 18.7575 66 18.3468 65.832C17.9361 65.6547 17.5815 65.412 17.2828 65.104C16.9935 64.7867 16.7695 64.4133 16.6108 63.984C16.4521 63.5547 16.3728 63.0833 16.3728 62.57C16.3728 62.122 16.4428 61.6833 16.5828 61.254C16.7321 60.8247 16.9375 60.4467 17.1988 60.12C17.4695 59.7933 17.7961 59.532 18.1788 59.336C18.5615 59.1307 18.9955 59.028 19.4808 59.028C19.7795 59.028 20.0501 59.0607 20.2928 59.126C20.5448 59.1913 20.7688 59.2753 20.9648 59.378C21.1608 59.4807 21.3288 59.5973 21.4688 59.728C21.6088 59.8493 21.7208 59.9707 21.8048 60.092H21.8328V59.196H23.7648V65.426ZM18.4728 62.556C18.4728 62.78 18.5148 62.9947 18.5988 63.2C18.6828 63.396 18.7995 63.5733 18.9488 63.732C19.1075 63.8813 19.2848 64.0027 19.4808 64.096C19.6861 64.1893 19.9101 64.236 20.1528 64.236C20.3861 64.236 20.6055 64.1893 20.8108 64.096C21.0161 64.0027 21.1935 63.8813 21.3428 63.732C21.5015 63.5733 21.6228 63.396 21.7068 63.2C21.7908 62.9947 21.8328 62.78 21.8328 62.556C21.8328 62.332 21.7908 62.122 21.7068 61.926C21.6228 61.7207 21.5015 61.5433 21.3428 61.394C21.1935 61.2353 21.0161 61.1093 20.8108 61.016C20.6055 60.9227 20.3861 60.876 20.1528 60.876C19.9101 60.876 19.6861 60.9227 19.4808 61.016C19.2848 61.1093 19.1075 61.2353 18.9488 61.394C18.7995 61.5433 18.6828 61.7207 18.5988 61.926C18.5148 62.122 18.4728 62.332 18.4728 62.556ZM31.8832 64.824C31.5472 65.2533 31.1225 65.5847 30.6092 65.818C30.0958 66.0513 29.5638 66.168 29.0132 66.168C28.4905 66.168 27.9958 66.084 27.5292 65.916C27.0718 65.748 26.6705 65.51 26.3252 65.202C25.9892 64.8847 25.7232 64.5067 25.5272 64.068C25.3312 63.6293 25.2332 63.1393 25.2332 62.598C25.2332 62.0567 25.3312 61.5667 25.5272 61.128C25.7232 60.6893 25.9892 60.316 26.3252 60.008C26.6705 59.6907 27.0718 59.448 27.5292 59.28C27.9958 59.112 28.4905 59.028 29.0132 59.028C29.4985 59.028 29.9372 59.112 30.3292 59.28C30.7305 59.448 31.0665 59.6907 31.3372 60.008C31.6172 60.316 31.8318 60.6893 31.9812 61.128C32.1305 61.5667 32.2052 62.0567 32.2052 62.598V63.256H27.3332C27.4172 63.6573 27.5992 63.9793 27.8792 64.222C28.1592 64.4553 28.5045 64.572 28.9152 64.572C29.2605 64.572 29.5498 64.4973 29.7832 64.348C30.0258 64.1893 30.2358 63.9887 30.4132 63.746L31.8832 64.824ZM30.1052 61.828C30.1145 61.4733 29.9978 61.17 29.7552 60.918C29.5125 60.666 29.1998 60.54 28.8172 60.54C28.5838 60.54 28.3785 60.5773 28.2012 60.652C28.0238 60.7267 27.8698 60.8247 27.7392 60.946C27.6178 61.058 27.5198 61.1933 27.4452 61.352C27.3798 61.5013 27.3425 61.66 27.3332 61.828H30.1052ZM38.1162 60.876H36.2682V63.144C36.2682 63.3307 36.2776 63.5033 36.2962 63.662C36.3149 63.8113 36.3569 63.942 36.4222 64.054C36.4876 64.166 36.5856 64.2547 36.7162 64.32C36.8562 64.376 37.0382 64.404 37.2622 64.404C37.3742 64.404 37.5189 64.3947 37.6962 64.376C37.8829 64.348 38.0229 64.292 38.1162 64.208V65.958C37.8829 66.042 37.6402 66.098 37.3882 66.126C37.1362 66.154 36.8889 66.168 36.6462 66.168C36.2916 66.168 35.9649 66.1307 35.6662 66.056C35.3676 65.9813 35.1062 65.8647 34.8822 65.706C34.6582 65.538 34.4809 65.3233 34.3502 65.062C34.2289 64.8007 34.1682 64.4833 34.1682 64.11V60.876H32.8242V59.196H34.1682V57.18H36.2682V59.196H38.1162V60.876ZM43.4534 65.146H43.4254C43.1921 65.51 42.8794 65.7713 42.4874 65.93C42.1047 66.0887 41.6987 66.168 41.2694 66.168C40.9521 66.168 40.6441 66.1213 40.3454 66.028C40.0561 65.944 39.7994 65.8133 39.5754 65.636C39.3514 65.4587 39.1741 65.2393 39.0434 64.978C38.9127 64.7167 38.8474 64.4133 38.8474 64.068C38.8474 63.676 38.9174 63.3447 39.0574 63.074C39.2067 62.8033 39.4027 62.5793 39.6454 62.402C39.8974 62.2247 40.1821 62.0893 40.4994 61.996C40.8167 61.8933 41.1434 61.8187 41.4794 61.772C41.8247 61.7253 42.1654 61.6973 42.5014 61.688C42.8467 61.6787 43.1641 61.674 43.4534 61.674C43.4534 61.3007 43.3181 61.0067 43.0474 60.792C42.7861 60.568 42.4734 60.456 42.1094 60.456C41.7641 60.456 41.4467 60.5307 41.1574 60.68C40.8774 60.82 40.6254 61.016 40.4014 61.268L39.2814 60.12C39.6734 59.756 40.1307 59.4853 40.6534 59.308C41.1761 59.1213 41.7174 59.028 42.2774 59.028C42.8934 59.028 43.3974 59.1073 43.7894 59.266C44.1907 59.4153 44.5081 59.6393 44.7414 59.938C44.9841 60.2367 45.1521 60.6053 45.2454 61.044C45.3387 61.4733 45.3854 61.9727 45.3854 62.542V66H43.4534V65.146ZM42.9354 63.018C42.7767 63.018 42.5761 63.0273 42.3334 63.046C42.1001 63.0553 41.8714 63.0927 41.6474 63.158C41.4327 63.2233 41.2461 63.3213 41.0874 63.452C40.9381 63.5827 40.8634 63.7647 40.8634 63.998C40.8634 64.25 40.9707 64.4367 41.1854 64.558C41.4001 64.6793 41.6241 64.74 41.8574 64.74C42.0627 64.74 42.2587 64.712 42.4454 64.656C42.6414 64.6 42.8141 64.5207 42.9634 64.418C43.1127 64.3153 43.2294 64.1847 43.3134 64.026C43.4067 63.8673 43.4534 63.6807 43.4534 63.466V63.018H42.9354ZM46.8989 55.416H48.9989V59.924H49.0269C49.2696 59.5973 49.5776 59.3687 49.9509 59.238C50.3336 59.098 50.7443 59.028 51.1829 59.028C51.6683 59.028 52.1023 59.1307 52.4849 59.336C52.8676 59.532 53.1896 59.798 53.4509 60.134C53.7216 60.47 53.9269 60.8573 54.0669 61.296C54.2163 61.7253 54.2909 62.178 54.2909 62.654C54.2909 63.1673 54.2116 63.6387 54.0529 64.068C53.8943 64.4973 53.6656 64.8707 53.3669 65.188C53.0776 65.496 52.7276 65.7387 52.3169 65.916C51.9063 66.084 51.4489 66.168 50.9449 66.168C50.7023 66.168 50.4736 66.1353 50.2589 66.07C50.0443 66.0047 49.8436 65.9207 49.6569 65.818C49.4796 65.7153 49.3209 65.6033 49.1809 65.482C49.0503 65.3513 48.9429 65.2253 48.8589 65.104H48.8309V66H46.8989V55.416ZM48.8309 62.598C48.8309 63.1113 48.9756 63.5267 49.2649 63.844C49.5636 64.1613 49.9789 64.32 50.5109 64.32C51.0429 64.32 51.4536 64.1613 51.7429 63.844C52.0416 63.5267 52.1909 63.1113 52.1909 62.598C52.1909 62.0847 52.0416 61.6693 51.7429 61.352C51.4536 61.0347 51.0429 60.876 50.5109 60.876C49.9789 60.876 49.5636 61.0347 49.2649 61.352C48.9756 61.6693 48.8309 62.0847 48.8309 62.598ZM55.5493 55.416H57.6493V66H55.5493V55.416ZM65.598 64.824C65.262 65.2533 64.8373 65.5847 64.324 65.818C63.8107 66.0513 63.2787 66.168 62.728 66.168C62.2053 66.168 61.7107 66.084 61.244 65.916C60.7867 65.748 60.3853 65.51 60.04 65.202C59.704 64.8847 59.438 64.5067 59.242 64.068C59.046 63.6293 58.948 63.1393 58.948 62.598C58.948 62.0567 59.046 61.5667 59.242 61.128C59.438 60.6893 59.704 60.316 60.04 60.008C60.3853 59.6907 60.7867 59.448 61.244 59.28C61.7107 59.112 62.2053 59.028 62.728 59.028C63.2133 59.028 63.652 59.112 64.044 59.28C64.4453 59.448 64.7813 59.6907 65.052 60.008C65.332 60.316 65.5467 60.6893 65.696 61.128C65.8453 61.5667 65.92 62.0567 65.92 62.598V63.256H61.048C61.132 63.6573 61.314 63.9793 61.594 64.222C61.874 64.4553 62.2193 64.572 62.63 64.572C62.9753 64.572 63.2647 64.4973 63.498 64.348C63.7407 64.1893 63.9507 63.9887 64.128 63.746L65.598 64.824ZM63.82 61.828C63.8293 61.4733 63.7127 61.17 63.47 60.918C63.2273 60.666 62.9147 60.54 62.532 60.54C62.2987 60.54 62.0933 60.5773 61.916 60.652C61.7387 60.7267 61.5847 60.8247 61.454 60.946C61.3327 61.058 61.2347 61.1933 61.16 61.352C61.0947 61.5013 61.0573 61.66 61.048 61.828H63.82ZM71.0471 61.198C70.7391 60.8153 70.3331 60.624 69.8291 60.624C69.6517 60.624 69.4791 60.666 69.3111 60.75C69.1431 60.834 69.0591 60.9787 69.0591 61.184C69.0591 61.352 69.1431 61.478 69.3111 61.562C69.4884 61.6367 69.7077 61.7067 69.9691 61.772C70.2397 61.828 70.5244 61.8933 70.8231 61.968C71.1311 62.0333 71.4157 62.1407 71.6771 62.29C71.9477 62.4393 72.1671 62.6447 72.3351 62.906C72.5124 63.158 72.6011 63.4987 72.6011 63.928C72.6011 64.3667 72.5031 64.7307 72.3071 65.02C72.1204 65.3 71.8777 65.5287 71.5791 65.706C71.2804 65.874 70.9444 65.9907 70.5711 66.056C70.1977 66.1307 69.8291 66.168 69.4651 66.168C68.9891 66.168 68.5084 66.1027 68.0231 65.972C67.5377 65.832 67.1271 65.5893 66.7911 65.244L68.0651 63.83C68.2611 64.0727 68.4757 64.2593 68.7091 64.39C68.9517 64.5113 69.2317 64.572 69.5491 64.572C69.7917 64.572 70.0111 64.5393 70.2071 64.474C70.4031 64.3993 70.5011 64.2687 70.5011 64.082C70.5011 63.9047 70.4124 63.774 70.2351 63.69C70.0671 63.5967 69.8477 63.522 69.5771 63.466C69.3157 63.4007 69.0311 63.3353 68.7231 63.27C68.4244 63.1953 68.1397 63.088 67.8691 62.948C67.6077 62.808 67.3884 62.612 67.2111 62.36C67.0431 62.0987 66.9591 61.7533 66.9591 61.324C66.9591 60.9227 67.0384 60.5773 67.1971 60.288C67.3651 59.9987 67.5797 59.7607 67.8411 59.574C68.1117 59.3873 68.4197 59.252 68.7651 59.168C69.1104 59.0747 69.4604 59.028 69.8151 59.028C70.2631 59.028 70.7157 59.0933 71.1731 59.224C71.6304 59.3547 72.0177 59.588 72.3351 59.924L71.0471 61.198Z" fill="white"/>
<path opacity="0.7" d="M29 26C28.0799 23.6132 27.0872 21.5228 26.0732 19.7028M16.7073 9.36317C18.5376 10.1373 22.4424 13.1865 26.0732 19.7028M26.0732 19.7028C30.7561 10.5515 24.3171 4.60979 20.2195 3.42144C16.122 2.2331 9.68293 1.63892 5 2.2331C10.2683 10.5514 7.34146 14.1164 12.0244 18.8698C15.7707 22.6725 20.2195 23.2271 21.9756 23.029" stroke="white" stroke-width="3" stroke-linecap="round"/>
<path opacity="0.7" d="M32 43C33.2409 39.4469 34.675 36.1172 36.2648 33.0558M55.6066 13.1674C51.8409 14.567 48.1691 17.176 44.7784 20.7718M36.2648 33.0558C28.459 21.3567 37.9016 7.90277 50.2951 6.73287C60.2098 5.79694 66.2295 5.95293 68 6.14791C59.1475 20.1868 61.5082 27.2063 56.7869 31.301C52.74 34.8107 50.2951 36.5655 40.2623 35.3956M36.2648 33.0558C37.8487 30.0058 39.587 27.2221 41.4426 24.7489M44.7784 20.7718C45.8868 17.0281 46.5574 14.5323 46.7541 13.7524M44.7784 20.7718C43.6319 21.9876 42.5176 23.3161 41.4426 24.7489M41.4426 24.7489C47.1082 22.9711 51.2787 23.6966 52.6557 24.2815" stroke="white" stroke-width="3" stroke-linecap="round"/>
</svg>
