<svg width="54" height="70" viewBox="0 0 54 70" fill="none" xmlns="http://www.w3.org/2000/svg">
<path opacity="0.7" d="M1.32081 59.196H3.25281V60.092H3.28081C3.36481 59.9707 3.47215 59.8493 3.60281 59.728C3.74281 59.5973 3.90148 59.4807 4.07881 59.378C4.26548 59.2753 4.46615 59.1913 4.68081 59.126C4.89548 59.0607 5.12415 59.028 5.36681 59.028C5.87081 59.028 6.32815 59.1167 6.73881 59.294C7.14948 59.462 7.49948 59.7047 7.78881 60.022C8.08748 60.33 8.31615 60.6987 8.47481 61.128C8.63348 61.5573 8.71281 62.0287 8.71281 62.542C8.71281 63.018 8.63815 63.4753 8.48881 63.914C8.34881 64.3433 8.14348 64.726 7.87281 65.062C7.61148 65.398 7.28948 65.6687 6.90681 65.874C6.52415 66.07 6.09015 66.168 5.60481 66.168C5.16615 66.168 4.75548 66.1027 4.37281 65.972C3.99948 65.832 3.69148 65.5987 3.44881 65.272H3.42081V69.192H1.32081V59.196ZM3.25281 62.598C3.25281 63.1113 3.39748 63.5267 3.68681 63.844C3.98548 64.1613 4.40081 64.32 4.93281 64.32C5.46481 64.32 5.87548 64.1613 6.16481 63.844C6.46348 63.5267 6.61281 63.1113 6.61281 62.598C6.61281 62.0847 6.46348 61.6693 6.16481 61.352C5.87548 61.0347 5.46481 60.876 4.93281 60.876C4.40081 60.876 3.98548 61.0347 3.68681 61.352C3.39748 61.6693 3.25281 62.0847 3.25281 62.598ZM9.94317 59.196H12.0432V60.288H12.0712C12.2952 59.868 12.5612 59.5553 12.8692 59.35C13.1772 59.1353 13.5645 59.028 14.0312 59.028C14.1525 59.028 14.2738 59.0327 14.3952 59.042C14.5165 59.0513 14.6285 59.07 14.7312 59.098V61.016C14.5818 60.9693 14.4325 60.9367 14.2832 60.918C14.1432 60.89 13.9938 60.876 13.8352 60.876C13.4338 60.876 13.1165 60.932 12.8832 61.044C12.6498 61.156 12.4678 61.3147 12.3372 61.52C12.2158 61.716 12.1365 61.954 12.0992 62.234C12.0618 62.514 12.0432 62.822 12.0432 63.158V66H9.94317V59.196ZM15.1463 62.598C15.1463 62.0567 15.2443 61.5667 15.4403 61.128C15.6363 60.6893 15.9023 60.316 16.2383 60.008C16.5836 59.6907 16.9849 59.448 17.4423 59.28C17.9089 59.112 18.4036 59.028 18.9263 59.028C19.4489 59.028 19.9389 59.112 20.3963 59.28C20.8629 59.448 21.2643 59.6907 21.6003 60.008C21.9456 60.316 22.2163 60.6893 22.4123 61.128C22.6083 61.5667 22.7063 62.0567 22.7063 62.598C22.7063 63.1393 22.6083 63.6293 22.4123 64.068C22.2163 64.5067 21.9456 64.8847 21.6003 65.202C21.2643 65.51 20.8629 65.748 20.3963 65.916C19.9389 66.084 19.4489 66.168 18.9263 66.168C18.4036 66.168 17.9089 66.084 17.4423 65.916C16.9849 65.748 16.5836 65.51 16.2383 65.202C15.9023 64.8847 15.6363 64.5067 15.4403 64.068C15.2443 63.6293 15.1463 63.1393 15.1463 62.598ZM17.2463 62.598C17.2463 63.1113 17.3909 63.5267 17.6803 63.844C17.9789 64.1613 18.3943 64.32 18.9263 64.32C19.4583 64.32 19.8689 64.1613 20.1583 63.844C20.4569 63.5267 20.6063 63.1113 20.6063 62.598C20.6063 62.0847 20.4569 61.6693 20.1583 61.352C19.8689 61.0347 19.4583 60.876 18.9263 60.876C18.3943 60.876 17.9789 61.0347 17.6803 61.352C17.3909 61.6693 17.2463 62.0847 17.2463 62.598ZM28.5772 60.876H26.7292V63.144C26.7292 63.3307 26.7385 63.5033 26.7572 63.662C26.7758 63.8113 26.8178 63.942 26.8832 64.054C26.9485 64.166 27.0465 64.2547 27.1772 64.32C27.3172 64.376 27.4992 64.404 27.7232 64.404C27.8352 64.404 27.9798 64.3947 28.1572 64.376C28.3438 64.348 28.4838 64.292 28.5772 64.208V65.958C28.3438 66.042 28.1012 66.098 27.8492 66.126C27.5972 66.154 27.3498 66.168 27.1072 66.168C26.7525 66.168 26.4258 66.1307 26.1272 66.056C25.8285 65.9813 25.5672 65.8647 25.3432 65.706C25.1192 65.538 24.9418 65.3233 24.8112 65.062C24.6898 64.8007 24.6292 64.4833 24.6292 64.11V60.876H23.2852V59.196H24.6292V57.18H26.7292V59.196H28.5772V60.876ZM36.0843 64.824C35.7483 65.2533 35.3237 65.5847 34.8103 65.818C34.297 66.0513 33.765 66.168 33.2143 66.168C32.6917 66.168 32.197 66.084 31.7303 65.916C31.273 65.748 30.8717 65.51 30.5263 65.202C30.1903 64.8847 29.9243 64.5067 29.7283 64.068C29.5323 63.6293 29.4343 63.1393 29.4343 62.598C29.4343 62.0567 29.5323 61.5667 29.7283 61.128C29.9243 60.6893 30.1903 60.316 30.5263 60.008C30.8717 59.6907 31.273 59.448 31.7303 59.28C32.197 59.112 32.6917 59.028 33.2143 59.028C33.6997 59.028 34.1383 59.112 34.5303 59.28C34.9317 59.448 35.2677 59.6907 35.5383 60.008C35.8183 60.316 36.033 60.6893 36.1823 61.128C36.3317 61.5667 36.4063 62.0567 36.4063 62.598V63.256H31.5343C31.6183 63.6573 31.8003 63.9793 32.0803 64.222C32.3603 64.4553 32.7057 64.572 33.1163 64.572C33.4617 64.572 33.751 64.4973 33.9843 64.348C34.227 64.1893 34.437 63.9887 34.6143 63.746L36.0843 64.824ZM34.3063 61.828C34.3157 61.4733 34.199 61.17 33.9563 60.918C33.7137 60.666 33.401 60.54 33.0183 60.54C32.785 60.54 32.5797 60.5773 32.4023 60.652C32.225 60.7267 32.071 60.8247 31.9403 60.946C31.819 61.058 31.721 61.1933 31.6463 61.352C31.581 61.5013 31.5437 61.66 31.5343 61.828H34.3063ZM37.7114 59.196H39.8114V66H37.7114V59.196ZM37.5434 57.054C37.5434 56.718 37.6601 56.4333 37.8934 56.2C38.1361 55.9573 38.4254 55.836 38.7614 55.836C39.0974 55.836 39.3821 55.9573 39.6154 56.2C39.8581 56.4333 39.9794 56.718 39.9794 57.054C39.9794 57.39 39.8581 57.6793 39.6154 57.922C39.3821 58.1553 39.0974 58.272 38.7614 58.272C38.4254 58.272 38.1361 58.1553 37.8934 57.922C37.6601 57.6793 37.5434 57.39 37.5434 57.054ZM41.3201 59.196H43.3361V60.12H43.3641C43.4295 59.9893 43.5228 59.8587 43.6441 59.728C43.7655 59.5973 43.9101 59.4807 44.0781 59.378C44.2461 59.2753 44.4375 59.1913 44.6521 59.126C44.8668 59.0607 45.1001 59.028 45.3521 59.028C45.8841 59.028 46.3135 59.112 46.6401 59.28C46.9668 59.4387 47.2188 59.6627 47.3961 59.952C47.5828 60.2413 47.7088 60.582 47.7741 60.974C47.8395 61.366 47.8721 61.7907 47.8721 62.248V66H45.7721V62.668C45.7721 62.472 45.7628 62.2713 45.7441 62.066C45.7348 61.8513 45.6928 61.6553 45.6181 61.478C45.5528 61.3007 45.4455 61.156 45.2961 61.044C45.1561 60.932 44.9508 60.876 44.6801 60.876C44.4095 60.876 44.1901 60.9273 44.0221 61.03C43.8541 61.1233 43.7235 61.254 43.6301 61.422C43.5461 61.5807 43.4901 61.7627 43.4621 61.968C43.4341 62.1733 43.4201 62.388 43.4201 62.612V66H41.3201V59.196Z" fill="white"/>
<g opacity="0.75">
<path d="M24.3745 4.55441C17.4333 11.9084 23.6514 21.6776 27.6281 25.643C31.4241 29.4281 43.3542 36.4576 48.777 31.5911M24.3745 4.55441C31.4241 -2.47512 41.7274 6.71717 46.6079 11.5839C52.3081 17.2682 54.1998 26.7245 48.777 31.5911M24.3745 4.55441C15.1557 14.2874 15.698 15.7765 15.698 20.2355C15.6979 26.5924 9.0459 32.0649 12.9864 37.4528M48.777 31.5911C43.8966 35.3764 39.5581 40.2426 30.8817 39.1611C24.2846 38.3388 23.0039 43.5183 17.3247 40.8237M12.9864 37.4528C13.4034 38.0229 13.9389 38.592 14.6134 39.1611C15.6243 39.9003 16.5188 40.4413 17.3247 40.8237M12.9864 37.4528L8.10594 41.3241C3.22543 36.4575 -1.65508 47.8129 5.93682 47.8129C5.39454 54.8424 17.867 52.1387 12.4442 46.1907L17.3247 40.8237" stroke="white" stroke-width="3" stroke-linecap="round" stroke-linejoin="round"/>
<ellipse cx="37.4347" cy="17.3148" rx="5.21952" ry="3.47968" transform="rotate(42.2057 37.4347 17.3148)" stroke="white" stroke-width="3"/>
</g>
</svg>
