{
    "asset" : {
        "generator" : "Khronos glTF Blender I/O v1.0.5",
        "version" : "2.0"
    },
    "scene" : 0,
    "scenes" : [
        {
            "name" : "Scene",
            "nodes" : [
                0,
                1,
                2,
                3,
                4,
                5
            ]
        }
    ],
    "nodes" : [
        {
            "name" : "Light",
            "rotation" : [
                0.16907575726509094,
                0.7558803558349609,
                -0.27217137813568115,
                0.570947527885437
            ],
            "translation" : [
                4.076245307922363,
                5.903861999511719,
                -1.0054539442062378
            ]
        },
        {
            "name" : "Camera",
            "rotation" : [
                0.483536034822464,
                0.33687159419059753,
                -0.20870360732078552,
                0.7804827094078064
            ],
            "translation" : [
                7.358891487121582,
                4.958309173583984,
                6.925790786743164
            ]
        },
        {
            "name" : "Empty",
            "scale" : [
                0.9147406816482544,
                0.9147406816482544,
                0.9147406816482544
            ]
        },
        {
            "mesh" : 0,
            "name" : "Right"
        },
        {
            "mesh" : 1,
            "name" : "Left Bottom"
        },
        {
            "mesh" : 2,
            "name" : "Left Top"
        }
    ],
    "materials" : [
        {
            "doubleSided" : true,
            "name" : "RightMaterial",
            "pbrMetallicRoughness" : {}
        },
        {
            "doubleSided" : true,
            "name" : "LeftBottomMaterial",
            "pbrMetallicRoughness" : {}
        },
        {
            "doubleSided" : true,
            "name" : "LeftTopMaterial",
            "pbrMetallicRoughness" : {}
        }
    ],
    "meshes" : [
        {
            "name" : "Cube.001",
            "primitives" : [
                {
                    "attributes" : {
                        "POSITION" : 0,
                        "NORMAL" : 1,
                        "TEXCOORD_0" : 2
                    },
                    "indices" : 3,
                    "material" : 0
                }
            ]
        },
        {
            "name" : "Cube.004",
            "primitives" : [
                {
                    "attributes" : {
                        "POSITION" : 4,
                        "NORMAL" : 5,
                        "TEXCOORD_0" : 6
                    },
                    "indices" : 7,
                    "material" : 1
                }
            ]
        },
        {
            "name" : "Cube.005",
            "primitives" : [
                {
                    "attributes" : {
                        "POSITION" : 8,
                        "NORMAL" : 9,
                        "TEXCOORD_0" : 10
                    },
                    "indices" : 11,
                    "material" : 2
                }
            ]
        }
    ],
    "accessors" : [
        {
            "bufferView" : 0,
            "componentType" : 5126,
            "count" : 486,
            "max" : [
                2.1595804691314697,
                0.7972717881202698,
                1.4931226968765259
            ],
            "min" : [
                0.18399256467819214,
                0.0077278465032577515,
                -1.5517115592956543
            ],
            "type" : "VEC3"
        },
        {
            "bufferView" : 1,
            "componentType" : 5126,
            "count" : 486,
            "type" : "VEC3"
        },
        {
            "bufferView" : 2,
            "componentType" : 5126,
            "count" : 486,
            "type" : "VEC2"
        },
        {
            "bufferView" : 3,
            "componentType" : 5123,
            "count" : 768,
            "type" : "SCALAR"
        },
        {
            "bufferView" : 4,
            "componentType" : 5126,
            "count" : 276,
            "max" : [
                -0.1850903034210205,
                0.7972717881202698,
                1.4931226968765259
            ],
            "min" : [
                -2.160677909851074,
                0.0077278465032577515,
                0.1323915719985962
            ],
            "type" : "VEC3"
        },
        {
            "bufferView" : 5,
            "componentType" : 5126,
            "count" : 276,
            "type" : "VEC3"
        },
        {
            "bufferView" : 6,
            "componentType" : 5126,
            "count" : 276,
            "type" : "VEC2"
        },
        {
            "bufferView" : 7,
            "componentType" : 5123,
            "count" : 444,
            "type" : "SCALAR"
        },
        {
            "bufferView" : 8,
            "componentType" : 5126,
            "count" : 276,
            "max" : [
                -0.1850903034210205,
                0.7972717881202698,
                -0.209097221493721
            ],
            "min" : [
                -2.160677909851074,
                0.0077278465032577515,
                -1.5517115592956543
            ],
            "type" : "VEC3"
        },
        {
            "bufferView" : 9,
            "componentType" : 5126,
            "count" : 276,
            "type" : "VEC3"
        },
        {
            "bufferView" : 10,
            "componentType" : 5126,
            "count" : 276,
            "type" : "VEC2"
        },
        {
            "bufferView" : 11,
            "componentType" : 5123,
            "count" : 444,
            "type" : "SCALAR"
        }
    ],
    "bufferViews" : [
        {
            "buffer" : 0,
            "byteLength" : 5832,
            "byteOffset" : 0
        },
        {
            "buffer" : 0,
            "byteLength" : 5832,
            "byteOffset" : 5832
        },
        {
            "buffer" : 0,
            "byteLength" : 3888,
            "byteOffset" : 11664
        },
        {
            "buffer" : 0,
            "byteLength" : 1536,
            "byteOffset" : 15552
        },
        {
            "buffer" : 0,
            "byteLength" : 3312,
            "byteOffset" : 17088
        },
        {
            "buffer" : 0,
            "byteLength" : 3312,
            "byteOffset" : 20400
        },
        {
            "buffer" : 0,
            "byteLength" : 2208,
            "byteOffset" : 23712
        },
        {
            "buffer" : 0,
            "byteLength" : 888,
            "byteOffset" : 25920
        },
        {
            "buffer" : 0,
            "byteLength" : 3312,
            "byteOffset" : 26808
        },
        {
            "buffer" : 0,
            "byteLength" : 3312,
            "byteOffset" : 30120
        },
        {
            "buffer" : 0,
            "byteLength" : 2208,
            "byteOffset" : 33432
        },
        {
            "buffer" : 0,
            "byteLength" : 888,
            "byteOffset" : 35640
        }
    ],
    "buffers" : [
        {
            "byteLength" : 36528,
            "uri" : "data:application/octet-stream;base64,"
        }
    ]
}
