<svg width="182" height="86" viewBox="0 0 182 86" fill="none" xmlns="http://www.w3.org/2000/svg">
<path d="M4 46L11.5 64L19 46L26.5 64L34 46" stroke="#FF3939" stroke-width="6.33166" stroke-linecap="round" stroke-linejoin="round"/>
<path d="M40 55C40 59.9706 44.0294 64 49 64H55M40 55C40 50.0294 44.0294 46 49 46C53.9706 46 58 50.0294 58 55H40Z" stroke="#FF3939" stroke-width="6.33166" stroke-linecap="round" stroke-linejoin="round"/>
<path d="M160 55C160 59.9706 164.029 64 169 64H175M160 55C160 50.0294 164.029 46 169 46C173.971 46 178 50.0294 178 55H160Z" stroke="#434343" stroke-width="6.33166" stroke-linecap="round" stroke-linejoin="round"/>
<path fill-rule="evenodd" clip-rule="evenodd" d="M73.1656 54.9998C73.1656 51.7777 75.7777 49.1656 78.9998 49.1656C82.2219 49.1656 84.834 51.7777 84.834 54.9998C84.834 58.2219 82.2219 60.834 78.9998 60.834C75.7777 60.834 73.1656 58.2219 73.1656 54.9998ZM73.1656 65.6781C74.8977 66.6264 76.8858 67.1656 78.9998 67.1656C85.7188 67.1656 91.1656 61.7188 91.1656 54.9998C91.1656 48.2808 85.7188 42.834 78.9998 42.834C76.7369 42.834 74.6183 43.4518 72.8034 44.528C72.2736 43.5208 71.2169 42.834 69.9998 42.834C68.2514 42.834 66.834 44.2514 66.834 45.9998V54.9998V81.9998C66.834 83.7482 68.2514 85.1656 69.9998 85.1656C71.7483 85.1656 73.1656 83.7482 73.1656 81.9998V65.6781Z" fill="#434343"/>
<path d="M73.1656 65.6781L73.4058 65.2395C73.2509 65.1547 73.0627 65.1579 72.9108 65.2479C72.7588 65.338 72.6656 65.5015 72.6656 65.6781H73.1656ZM72.8034 44.528L72.3609 44.7608C72.4247 44.8821 72.5355 44.9718 72.6674 45.0091C72.7992 45.0464 72.9406 45.028 73.0585 44.9581L72.8034 44.528ZM78.9998 48.6656C75.5015 48.6656 72.6656 51.5015 72.6656 54.9998H73.6656C73.6656 52.0538 76.0538 49.6656 78.9998 49.6656V48.6656ZM85.334 54.9998C85.334 51.5015 82.4981 48.6656 78.9998 48.6656V49.6656C81.9458 49.6656 84.334 52.0538 84.334 54.9998H85.334ZM78.9998 61.334C82.4981 61.334 85.334 58.4981 85.334 54.9998H84.334C84.334 57.9458 81.9458 60.334 78.9998 60.334V61.334ZM72.6656 54.9998C72.6656 58.4981 75.5015 61.334 78.9998 61.334V60.334C76.0538 60.334 73.6656 57.9458 73.6656 54.9998H72.6656ZM78.9998 66.6656C76.9718 66.6656 75.0661 66.1486 73.4058 65.2395L72.9255 66.1166C74.7294 67.1043 76.7998 67.6656 78.9998 67.6656V66.6656ZM90.6656 54.9998C90.6656 61.4427 85.4427 66.6656 78.9998 66.6656V67.6656C85.995 67.6656 91.6656 61.995 91.6656 54.9998H90.6656ZM78.9998 43.334C85.4427 43.334 90.6656 48.557 90.6656 54.9998H91.6656C91.6656 48.0047 85.995 42.334 78.9998 42.334V43.334ZM73.0585 44.9581C74.7982 43.9264 76.8291 43.334 78.9998 43.334V42.334C76.6447 42.334 74.4383 42.9772 72.5484 44.0979L73.0585 44.9581ZM69.9998 43.334C71.024 43.334 71.9141 43.9114 72.3609 44.7608L73.2459 44.2952C72.6331 43.1302 71.4098 42.334 69.9998 42.334V43.334ZM67.334 45.9998C67.334 44.5275 68.5275 43.334 69.9998 43.334V42.334C67.9752 42.334 66.334 43.9752 66.334 45.9998H67.334ZM67.334 54.9998V45.9998H66.334V54.9998H67.334ZM67.334 81.9998V54.9998H66.334V81.9998H67.334ZM69.9998 84.6656C68.5275 84.6656 67.334 83.4721 67.334 81.9998H66.334C66.334 84.0244 67.9752 85.6656 69.9998 85.6656V84.6656ZM72.6656 81.9998C72.6656 83.4721 71.4721 84.6656 69.9998 84.6656V85.6656C72.0244 85.6656 73.6656 84.0244 73.6656 81.9998H72.6656ZM72.6656 65.6781V81.9998H73.6656V65.6781H72.6656Z" fill="black"/>
<path fill-rule="evenodd" clip-rule="evenodd" d="M120.834 55.0002C120.834 58.2223 118.222 60.8344 115 60.8344C111.778 60.8344 109.166 58.2223 109.166 55.0002C109.166 51.7781 111.778 49.166 115 49.166C118.222 49.166 120.834 51.7781 120.834 55.0002ZM121.197 44.5284C119.382 43.4522 117.263 42.8344 115 42.8344C108.281 42.8344 102.834 48.2812 102.834 55.0002C102.834 61.7192 108.281 67.166 115 67.166C117.263 67.166 119.382 66.5482 121.197 65.472C121.726 66.4792 122.783 67.166 124 67.166C125.749 67.166 127.166 65.7486 127.166 64.0002L127.166 55.0002L127.166 46.0002C127.166 44.2518 125.749 42.8344 124 42.8344C122.783 42.8344 121.726 43.5212 121.197 44.5284Z" fill="#434343"/>
<path d="M121.197 44.5284L120.942 44.9585C121.059 45.0284 121.201 45.0468 121.333 45.0095C121.465 44.9722 121.575 44.8824 121.639 44.7612L121.197 44.5284ZM121.197 65.472L121.639 65.2392C121.575 65.1179 121.464 65.0282 121.333 64.9909C121.201 64.9536 121.059 64.972 120.942 65.0419L121.197 65.472ZM115 61.3344C118.498 61.3344 121.334 58.4985 121.334 55.0002L120.334 55.0002C120.334 57.9462 117.946 60.3344 115 60.3344L115 61.3344ZM108.666 55.0002C108.666 58.4985 111.502 61.3344 115 61.3344L115 60.3344C112.054 60.3344 109.666 57.9462 109.666 55.0002L108.666 55.0002ZM115 48.666C111.502 48.666 108.666 51.5019 108.666 55.0002L109.666 55.0002C109.666 52.0542 112.054 49.666 115 49.666L115 48.666ZM121.334 55.0002C121.334 51.5019 118.498 48.666 115 48.666L115 49.666C117.946 49.666 120.334 52.0542 120.334 55.0002L121.334 55.0002ZM115 43.3344C117.171 43.3344 119.202 43.9268 120.942 44.9585L121.452 44.0983C119.562 42.9776 117.355 42.3344 115 42.3344L115 43.3344ZM103.334 55.0002C103.334 48.5573 108.557 43.3344 115 43.3344L115 42.3344C108.005 42.3344 102.334 48.005 102.334 55.0002L103.334 55.0002ZM115 66.666C108.557 66.666 103.334 61.443 103.334 55.0002L102.334 55.0002C102.334 61.9953 108.005 67.666 115 67.666L115 66.666ZM120.942 65.0419C119.202 66.0736 117.171 66.666 115 66.666L115 67.666C117.355 67.666 119.562 67.0228 121.452 65.9021L120.942 65.0419ZM124 66.666C122.976 66.666 122.086 66.0886 121.639 65.2392L120.754 65.7048C121.367 66.8698 122.59 67.666 124 67.666L124 66.666ZM126.666 64.0002C126.666 65.4725 125.472 66.666 124 66.666L124 67.666C126.025 67.666 127.666 66.0248 127.666 64.0002L126.666 64.0002ZM126.666 55.0002L126.666 64.0002L127.666 64.0002L127.666 55.0002L126.666 55.0002ZM126.666 46.0002L126.666 55.0002L127.666 55.0002L127.666 46.0002L126.666 46.0002ZM124 43.3344C125.472 43.3344 126.666 44.5279 126.666 46.0002L127.666 46.0002C127.666 43.9756 126.025 42.3344 124 42.3344L124 43.3344ZM121.639 44.7612C122.086 43.9118 122.976 43.3344 124 43.3344L124 42.3344C122.59 42.3344 121.367 43.1306 120.754 44.2956L121.639 44.7612Z" fill="black"/>
<path fill-rule="evenodd" clip-rule="evenodd" d="M133 33.834C134.748 33.834 136.166 35.2514 136.166 36.9998V42.834H142C143.748 42.834 145.166 44.2514 145.166 45.9998C145.166 47.7483 143.748 49.1656 142 49.1656H136.166V54.9998C136.166 58.2219 138.778 60.834 142 60.834C145.222 60.834 147.834 58.2219 147.834 54.9998C147.834 53.2514 149.251 51.834 151 51.834C152.748 51.834 154.166 53.2514 154.166 54.9998C154.166 61.7188 148.719 67.1656 142 67.1656C135.281 67.1656 129.834 61.7188 129.834 54.9998V45.9998V36.9998C129.834 35.2514 131.251 33.834 133 33.834Z" fill="#434343"/>
<path d="M136.166 42.834H135.666C135.666 43.1101 135.889 43.334 136.166 43.334V42.834ZM136.166 49.1656V48.6656C135.889 48.6656 135.666 48.8895 135.666 49.1656H136.166ZM136.666 36.9998C136.666 34.9752 135.024 33.334 133 33.334V34.334C134.472 34.334 135.666 35.5275 135.666 36.9998H136.666ZM136.666 42.834V36.9998H135.666V42.834H136.666ZM142 42.334H136.166V43.334H142V42.334ZM145.666 45.9998C145.666 43.9752 144.024 42.334 142 42.334V43.334C143.472 43.334 144.666 44.5275 144.666 45.9998H145.666ZM142 49.6656C144.024 49.6656 145.666 48.0244 145.666 45.9998H144.666C144.666 47.4721 143.472 48.6656 142 48.6656V49.6656ZM136.166 49.6656H142V48.6656H136.166V49.6656ZM136.666 54.9998V49.1656H135.666V54.9998H136.666ZM142 60.334C139.054 60.334 136.666 57.9458 136.666 54.9998H135.666C135.666 58.4981 138.502 61.334 142 61.334V60.334ZM147.334 54.9998C147.334 57.9458 144.946 60.334 142 60.334V61.334C145.498 61.334 148.334 58.4981 148.334 54.9998H147.334ZM151 51.334C148.975 51.334 147.334 52.9752 147.334 54.9998H148.334C148.334 53.5275 149.528 52.334 151 52.334V51.334ZM154.666 54.9998C154.666 52.9752 153.024 51.334 151 51.334V52.334C152.472 52.334 153.666 53.5275 153.666 54.9998H154.666ZM142 67.6656C148.995 67.6656 154.666 61.995 154.666 54.9998H153.666C153.666 61.4427 148.443 66.6656 142 66.6656V67.6656ZM129.334 54.9998C129.334 61.995 135.005 67.6656 142 67.6656V66.6656C135.557 66.6656 130.334 61.4427 130.334 54.9998H129.334ZM129.334 45.9998V54.9998H130.334V45.9998H129.334ZM129.334 36.9998V45.9998H130.334V36.9998H129.334ZM133 33.334C130.975 33.334 129.334 34.9752 129.334 36.9998H130.334C130.334 35.5275 131.528 34.334 133 34.334V33.334Z" fill="black"/>
<path fill-rule="evenodd" clip-rule="evenodd" d="M96.9998 24.8342C98.7483 24.8342 100.166 26.2516 100.166 28.0001V64C100.166 65.7485 98.7483 67.1659 96.9998 67.1659C95.2514 67.1659 93.834 65.7485 93.834 64V28.0001C93.834 26.2516 95.2514 24.8342 96.9998 24.8342Z" fill="#434343"/>
<path d="M100.666 28.0001C100.666 25.9755 99.0244 24.3342 96.9998 24.3342V25.3342C98.4721 25.3342 99.6656 26.5278 99.6656 28.0001H100.666ZM100.666 64V28.0001H99.6656V64H100.666ZM96.9998 67.6659C99.0244 67.6659 100.666 66.0246 100.666 64H99.6656C99.6656 65.4723 98.4721 66.6659 96.9998 66.6659V67.6659ZM93.334 64C93.334 66.0246 94.9752 67.6659 96.9998 67.6659V66.6659C95.5275 66.6659 94.334 65.4723 94.334 64H93.334ZM93.334 28.0001V64H94.334V28.0001H93.334ZM96.9998 24.3342C94.9752 24.3342 93.334 25.9755 93.334 28.0001H94.334C94.334 26.5278 95.5275 25.3342 96.9998 25.3342V24.3342Z" fill="black"/>
<path d="M62.5 4H85V34H62.5M62.5 4H40V19M62.5 4V19M62.5 34H40V19M62.5 34V19M62.5 19H40" stroke="#FF3939" stroke-width="6.33166" stroke-linecap="round" stroke-linejoin="round"/>
</svg>
